<svg id="Слой_1" data-name="Слой 1" xmlns="http://www.w3.org/2000/svg" viewBox="0 0 278.32 278.32"><defs><style>.cls-1{fill:#4da750;}.cls-2{fill:none;stroke:#878787;stroke-miterlimit:10;stroke-width:13px;}</style></defs><path class="cls-1" d="M196.16,77.59l-4.77,5.67c-15.6,18.5-31.13,37.41-51.26,62.42-10.67,13.24-14.33,17.76-18.19,22.42-6.32,7.6-9.5,10.89-10.55,10.89-.45,0-1.46-1-2.79-2.79-2.35-3.11-5.29-8-12.51-20.59-7-12.21-9.37-16.12-10.76-17.71l-.5-.57-1.31.48c-4.56,1.65-9.9,5-15.17,9.53-2.68,2.3-8,7.7-8,8.1,0,.57,8.25,11.73,17.14,23.2,10.88,14,19.81,24.82,23.88,28.94a14.6,14.6,0,0,0,6.71,3.76,19.53,19.53,0,0,0,6.75.07,39.46,39.46,0,0,0,5.89-1.95c1.1-.5,1.34-.78,5.4-5.94,7.12-9.11,10.58-13.42,15.73-19.59A672.57,672.57,0,0,1,231.1,95.37c3-2.47,10.33-8.35,11.45-9.18a2.6,2.6,0,0,0,.67-.61c0-.06-.21-.1-.47-.1-.79,0-4.91-.29-7.39-.52-14.73-1.33-27.7-4.13-38.18-8.26C197,76.64,196.71,76.93,196.16,77.59Z" transform="translate(-6.3 -7.74)"/><circle class="cls-2" cx="139.16" cy="139.16" r="132.66"/></svg>